<?xml version="1.0" standalone="no"?>
<!DOCTYPE svg PUBLIC "-//W3C//DTD SVG 20010904//EN"
 "http://www.w3.org/TR/2001/REC-SVG-20010904/DTD/svg10.dtd">
<svg version="1.0" xmlns="http://www.w3.org/2000/svg"
 width="640.000000pt" height="341.000000pt" viewBox="0 0 640.000000 341.000000"
 preserveAspectRatio="xMidYMid meet">

<g transform="translate(0.000000,341.000000) scale(0.100000,-0.100000)"
fill="#000000" stroke="none">
<path d="M2785 3385 c-656 -47 -1237 -191 -1735 -432 -346 -168 -649 -400
-819 -628 -68 -92 -166 -290 -192 -390 -54 -209 -26 -461 73 -660 151 -303
513 -622 926 -817 636 -300 1347 -448 2152 -448 1040 0 1946 244 2588 697 114
80 337 298 407 397 277 393 271 831 -17 1221 -77 105 -238 260 -373 361 -406
302 -991 528 -1655 638 -416 69 -917 91 -1355 61z m735 -85 c528 -32 957 -113
1394 -261 625 -212 1115 -570 1290 -943 75 -160 102 -284 92 -434 -9 -152 -48
-282 -124 -412 -289 -495 -1008 -888 -1937 -1059 -575 -106 -1270 -119 -1841
-36 -374 54 -723 141 -1029 257 -139 53 -388 169 -470 220 -229 143 -361 244
-471 360 -206 218 -306 426 -320 669 -19 307 140 616 449 873 346 287 786 490
1357 628 492 118 1093 169 1610 138z"/>
<path d="M2715 3185 c-338 -28 -750 -100 -990 -172 -440 -132 -765 -282 -1020
-473 -349 -260 -520 -556 -502 -869 32 -574 735 -1087 1807 -1319 166 -36 322
-63 475 -81 240 -29 374 -36 715 -36 435 0 606 13 988 76 198 33 517 113 697
176 310 108 501 199 720 342 286 186 476 409 557 651 29 87 32 106 32 230 1
147 -11 207 -66 330 -166 372 -647 716 -1288 921 -174 56 -203 64 -300 88
-292 70 -614 120 -920 141 -195 13 -720 11 -905 -5z m-76 -119 c-11 -9 -119
-15 -119 -6 0 6 27 10 62 10 34 0 59 -2 57 -4z m-157 -18 c3 -8 21 -11 49 -10
24 1 51 -2 59 -8 11 -7 7 -10 -20 -10 -31 0 -35 -3 -37 -27 -1 -16 -3 -37 -4
-48 -1 -11 -2 -55 -1 -97 2 -62 5 -78 17 -78 25 0 17 -36 -12 -56 l-28 -19 60
-6 60 -6 -72 -1 c-40 -1 -73 -6 -73 -12 0 -6 37 -9 90 -8 50 0 93 -2 97 -6 3
-3 -42 -6 -100 -6 -70 0 -107 -4 -107 -11 0 -18 228 -8 240 11 5 8 12 11 17 7
4 -5 1 -12 -6 -17 -10 -6 -18 -51 -27 -152 -7 -78 -15 -152 -18 -163 -6 -20
-34 -334 -38 -412 l-2 -43 -105 0 -106 0 0 57 0 58 -102 3 -101 3 -29 -60 -28
-60 -117 0 c-65 -1 -118 1 -118 5 0 6 77 118 175 254 66 93 109 160 102 160
-16 0 -427 -62 -451 -68 -24 -6 -33 -19 -56 -77 l-28 -70 89 -3 c49 -1 89 -6
89 -9 0 -4 -16 -49 -36 -100 l-36 -93 -199 0 c-109 0 -199 2 -199 5 0 2 20 50
44 107 55 130 71 176 64 183 -3 3 -34 -3 -69 -14 -347 -102 -612 -112 -707
-27 -59 53 -70 144 -26 211 106 160 397 359 688 472 279 108 531 171 916 231
152 24 197 26 202 10z m158 -318 c0 -5 -15 -10 -32 -9 -28 0 -30 2 -13 9 28
12 45 12 45 0z m600 -108 c0 -4 7 -47 15 -97 8 -49 20 -128 26 -175 6 -47 15
-89 19 -93 3 -4 15 21 25 55 17 60 26 85 59 161 8 17 26 59 39 92 l25 60 103
3 c56 1 106 -1 110 -5 4 -4 2 -21 -6 -38 -7 -16 -28 -64 -45 -105 -17 -41 -37
-88 -45 -105 -7 -16 -45 -111 -85 -210 -39 -99 -83 -206 -97 -237 l-25 -57
-105 -3 c-58 -2 -108 -1 -112 2 -3 3 -7 14 -7 25 -6 87 -38 345 -43 345 -7 0
-60 -124 -117 -272 l-37 -98 -104 0 c-57 0 -103 2 -103 5 0 6 41 105 65 160
25 56 125 309 125 317 0 5 8 27 19 51 48 109 70 164 77 192 4 17 8 32 9 35 4
8 215 0 215 -8z m958 -17 c60 -18 114 -61 132 -105 21 -51 8 -163 -30 -255
-66 -159 -144 -250 -265 -310 -96 -47 -196 -65 -365 -65 l-139 0 25 58 c13 31
29 65 34 74 6 10 10 23 10 28 0 6 11 35 24 63 14 29 45 106 71 172 25 66 53
134 61 152 8 17 14 34 14 37 0 3 11 29 23 58 13 29 30 68 37 87 l14 34 150 -6
c96 -3 170 -11 204 -22z m-1281 -197 c-3 -8 -6 -5 -6 6 -1 11 2 17 5 13 3 -3
4 -12 1 -19z m-207 -18 c0 -11 -4 -20 -9 -20 -5 0 -7 9 -4 20 3 11 7 20 9 20
2 0 4 -9 4 -20z m177 -26 c-3 -3 -12 -4 -19 -1 -8 3 -5 6 6 6 11 1 17 -2 13
-5z m2153 -118 l0 -83 -87 -31 c-49 -17 -146 -50 -216 -74 -126 -42 -129 -43
-143 -23 -8 10 -13 24 -11 29 2 5 57 28 123 50 l119 41 -128 5 -129 5 -1 83
-2 82 238 0 237 0 0 -84z m-1994 -592 c64 -18 108 -52 134 -105 80 -155 24
-367 -138 -526 -208 -205 -477 -197 -550 16 -19 53 -15 171 8 242 20 65 82
166 142 230 71 76 176 135 264 148 85 12 81 12 140 -5z m-669 -27 c17 -9 39
-27 47 -39 37 -53 1 -207 -69 -292 -19 -24 -59 -55 -90 -70 -33 -17 -55 -35
-55 -45 0 -9 9 -70 20 -136 11 -66 20 -128 20 -137 0 -16 -13 -18 -129 -18
l-128 0 -7 77 c-3 42 -6 94 -6 117 l-1 41 -19 -40 c-11 -22 -33 -74 -49 -115
l-28 -75 -117 -3 c-133 -3 -131 -5 -92 80 14 29 65 152 114 273 49 121 107
262 128 313 l39 94 195 -4 c161 -3 201 -6 227 -21z m1244 11 c2 -18 3 -11 -20
-153 -12 -71 -29 -158 -38 -193 -9 -34 -14 -65 -11 -68 3 -3 21 21 39 53 18
32 79 129 136 216 l104 157 124 0 c69 0 125 -3 125 -7 0 -3 -17 -29 -38 -57
-69 -91 -187 -248 -202 -270 -8 -12 -71 -97 -140 -191 -69 -93 -136 -185 -149
-202 l-22 -33 -110 0 -109 0 0 38 c0 20 7 111 16 202 14 160 43 497 44 513 0
4 56 7 125 7 93 0 125 -3 126 -12z m1012 -3 c-1 -5 -19 -52 -40 -102 l-38 -93
-106 0 c-93 0 -107 -2 -112 -17 -2 -10 -8 -26 -12 -36 -7 -17 -1 -18 81 -16
89 2 109 -6 86 -34 -5 -7 -24 -47 -42 -89 l-32 -78 -93 0 -93 0 -11 -31 c-6
-18 -11 -34 -11 -35 0 -2 42 -4 93 -4 52 0 96 -3 99 -6 6 -5 -56 -162 -75
-191 -6 -10 -62 -13 -222 -13 -118 0 -216 3 -218 8 -4 6 40 119 84 217 14 31
76 180 124 295 70 168 90 214 98 228 11 16 443 13 440 -3z m591 4 c22 -6 52
-24 68 -39 23 -23 28 -37 28 -77 0 -89 -49 -205 -108 -254 -15 -13 -48 -35
-74 -48 -52 -28 -51 -18 -22 -190 8 -46 14 -97 14 -112 l0 -29 -130 0 -130 0
-1 63 c-2 79 -7 159 -11 163 -2 1 -24 -48 -49 -109 l-45 -112 -117 -3 c-64 -1
-117 0 -117 4 0 7 75 193 175 434 31 74 70 171 87 215 17 44 36 86 41 93 12
16 334 17 391 1z m-3790 -165 c3 -9 6 -19 6 -23 0 -5 -53 -27 -117 -51 -65
-23 -120 -44 -123 -47 -2 -2 54 -3 125 -2 l130 1 0 -83 0 -84 -232 -5 -232 -5
-3 84 c-2 45 -1 86 2 90 3 4 41 19 85 34 44 15 130 45 190 66 122 43 160 49
169 25z"/>
<path d="M2458 3013 c7 -3 16 -2 19 1 4 3 -2 6 -13 5 -11 0 -14 -3 -6 -6z"/>
<path d="M2412 2627 c-12 -13 -18 -27 -14 -34 6 -9 14 -3 26 18 22 38 16 46
-12 16z"/>
<path d="M2360 2554 c0 -8 5 -12 10 -9 6 3 10 10 10 16 0 5 -4 9 -10 9 -5 0
-10 -7 -10 -16z"/>
<path d="M2334 2505 c-9 -14 -15 -28 -12 -30 2 -2 12 9 22 25 21 36 13 40 -10
5z"/>
<path d="M2270 2415 c-7 -9 -10 -18 -7 -21 3 -3 10 4 17 15 13 25 8 27 -10 6z"/>
<path d="M2454 2348 c-9 -18 -21 -36 -26 -39 -18 -12 -76 -114 -69 -122 5 -5
28 -7 52 -5 l44 3 12 95 c6 52 10 96 8 98 -2 2 -11 -11 -21 -30z"/>
<path d="M3960 2434 c-8 -21 -8 -30 0 -32 7 -3 2 -9 -10 -16 -15 -7 -38 -49
-72 -131 -50 -123 -88 -218 -88 -222 0 -2 12 -3 26 -3 39 0 104 21 147 47 70
44 144 172 154 269 7 68 -22 102 -96 111 -49 6 -51 5 -61 -23z m30 -4 c0 -5
-4 -10 -10 -10 -5 0 -10 5 -10 10 0 6 5 10 10 10 6 0 10 -4 10 -10z"/>
<path d="M2847 1466 c-47 -21 -118 -95 -144 -152 -49 -107 -24 -224 52 -238
104 -20 219 82 256 227 15 61 5 108 -30 146 -23 25 -37 31 -68 30 -21 0 -51
-6 -66 -13z"/>
<path d="M2089 1403 c-43 -98 -43 -93 -3 -93 39 0 73 29 94 80 18 42 7 60 -35
60 -33 0 -37 -4 -56 -47z"/>
<path d="M4979 1423 c-17 -43 -39 -105 -39 -109 0 -2 15 -4 34 -4 26 0 41 7
60 31 51 61 47 109 -9 109 -29 0 -37 -5 -46 -27z"/>
</g>
</svg>
